<?xml version="1.0" encoding="UTF-8" standalone="no"?>
<svg
   xmlns:dc="http://purl.org/dc/elements/1.1/"
   xmlns:cc="http://creativecommons.org/ns#"
   xmlns:rdf="http://www.w3.org/1999/02/22-rdf-syntax-ns#"
   xmlns:svg="http://www.w3.org/2000/svg"
   xmlns="http://www.w3.org/2000/svg"
   xmlns:xlink="http://www.w3.org/1999/xlink"
   xmlns:sodipodi="http://sodipodi.sourceforge.net/DTD/sodipodi-0.dtd"
   xmlns:inkscape="http://www.inkscape.org/namespaces/inkscape"
   id="svg61024"
   viewBox="0 0 588.26996 110.10389"
   height="110.10389"
   width="588.26996"
   version="1.1"
   sodipodi:docname="Vetrify-NameOnly.svg"
   inkscape:version="0.92.4 (5da689c313, 2019-01-14)"
   inkscape:export-filename="C:\Users\Shazana\Downloads\vetrify-name.png"
   inkscape:export-xdpi="96"
   inkscape:export-ydpi="96">
  <sodipodi:namedview
     pagecolor="#ffffff"
     bordercolor="#666666"
     borderopacity="1"
     objecttolerance="10"
     gridtolerance="10"
     guidetolerance="10"
     inkscape:pageopacity="0"
     inkscape:pageshadow="2"
     inkscape:window-width="3840"
     inkscape:window-height="1973"
     id="namedview33"
     showgrid="false"
     fit-margin-top="10"
     fit-margin-left="10"
     fit-margin-bottom="10"
     fit-margin-right="10"
     inkscape:zoom="1.7383042"
     inkscape:cx="90.410406"
     inkscape:cy="23.325835"
     inkscape:window-x="-18"
     inkscape:window-y="-18"
     inkscape:window-maximized="1"
     inkscape:current-layer="svg61024" />
  <metadata
     id="metadata61030">
    <rdf:rdf>
      <cc:work
         rdf:about="">
        <dc:format>image/svg+xml</dc:format>
        <dc:type
           rdf:resource="http://purl.org/dc/dcmitype/StillImage" />
      </cc:work>
    </rdf:rdf>
    <rdf:RDF>
      <cc:Work
         rdf:about="">
        <dc:format>image/svg+xml</dc:format>
        <dc:type
           rdf:resource="http://purl.org/dc/dcmitype/StillImage" />
        <dc:title></dc:title>
      </cc:Work>
    </rdf:RDF>
  </metadata>
  <defs
     id="defs61028" />
  <image
     sodipodi:absref="C:\Users\Shazana\Downloads\../nounpreview/102818.png"
     xlink:href="../nounpreview/102818.png"
     style="display:none"
     y="-297.22195"
     x="194.13498"
     height="200"
     width="200"
     id="icon" />
  <g
     aria-label="VETRIFY"
     style="font-style:normal;font-weight:300;font-size:72px;line-height:1;font-family:'Montserrat Light Alt1';font-variant-ligatures:none;text-align:center;text-anchor:middle"
     id="title"
     transform="translate(-217.86502,-297.22196)">
    <path
       inkscape:connector-curvature="0"
       transform="matrix(1.7877756,0,0,1.7877756,-419.49546,397.32585)"
       d="m 410.70387,-50.4 h -3.816 L 386.51188,-4.752 366.13587,-50.4 h -4.03199 l 22.464,50.4 h 3.67199 z"
       style="font-style:normal;font-weight:300;font-size:72px;line-height:1;font-family:'Montserrat Light Alt1';font-variant-ligatures:none;text-align:center;text-anchor:middle;fill:#5cb349"
       id="path61032" />
    <path
       inkscape:connector-curvature="0"
       transform="matrix(1.7877756,0,0,1.7877756,-414.13214,397.32585)"
       d="m 451.44687,-27.216 h -32.616 v 3.24 h 32.616 z m 0,-23.184 h -32.616 v 3.312 h 32.616 z m -32.616,47.088 V 0 h 32.616 v -3.312 z"
       style="font-style:normal;font-weight:300;font-size:72px;line-height:1;font-family:'Montserrat Light Alt1';font-variant-ligatures:none;text-align:center;text-anchor:middle;fill:#5cb349"
       id="path61034" />
    <path
       inkscape:connector-curvature="0"
       transform="matrix(1.7877756,0,0,1.7877756,-408.76881,397.32585)"
       d="M 476.71325,-47.088 V 0 h 3.672 v -47.088 h 18.144 V -50.4 h -39.96 v 3.312 z"
       style="font-style:normal;font-weight:300;font-size:72px;line-height:1;font-family:'Montserrat Light Alt1';font-variant-ligatures:none;text-align:center;text-anchor:middle;fill:#5cb349"
       id="path61036" />
    <path
       inkscape:connector-curvature="0"
       transform="matrix(1.7877756,0,0,1.7877756,-403.40548,397.32585)"
       d="m 534.13325,-17.64 c 3.744,-1.08 6.696,-2.952 8.712,-5.688 2.016,-2.736 3.096,-6.048 3.096,-10.08 0,-5.256 -1.8,-9.432 -5.4,-12.456 -3.6,-3.024 -8.568,-4.536 -14.904,-4.536 h -18.072 v 3.312 h 18.072 c 5.328,0 9.432,1.224 12.312,3.6 2.808,2.376 4.248,5.76 4.248,10.08 0,4.392 -1.44,7.776 -4.248,10.152 -2.88,2.376 -6.984,3.528 -12.312,3.528 h -18.072 V 0 h 3.672 v -16.488 h 14.4 c 1.44,0 3.096,-0.072 4.896,-0.36 L 542.55725,0 h 4.176 z"
       style="font-style:normal;font-weight:300;font-size:72px;line-height:1;font-family:'Montserrat Light Alt1';font-variant-ligatures:none;text-align:center;text-anchor:middle;fill:#5cb349"
       id="path61038" />
    <path
       inkscape:connector-curvature="0"
       transform="matrix(1.7877756,0,0,1.7877756,-398.04216,397.32585)"
       d="M 559.45587,-50.4 V 0 h 3.67201 v -50.4 z"
       style="font-style:normal;font-weight:300;font-size:72px;line-height:1;font-family:'Montserrat Light Alt1';font-variant-ligatures:none;text-align:center;text-anchor:middle;fill:#5cb349"
       id="path61040" />
    <path
       inkscape:connector-curvature="0"
       transform="matrix(1.7877756,0,0,1.7877756,-392.67883,397.32585)"
       d="m 580.69025,-50.4 v 3.312 h 32.256 V -50.4 Z m 0,50.4 h 3.672 v -22.248 h 28.584 v -3.312 h -32.256 z"
       style="font-style:normal;font-weight:300;font-size:72px;line-height:1;font-family:'Montserrat Light Alt1';font-variant-ligatures:none;text-align:center;text-anchor:middle;fill:#5cb349"
       id="path61042" />
    <path
       inkscape:connector-curvature="0"
       transform="matrix(1.7877756,0,0,1.7877756,-387.3155,397.32585)"
       d="M 641.66413,-17.352 661.96812,-50.4 h -3.816 l -18.216,29.664 -18.21599,-29.664 h -4.032 l 20.30399,33.048 V 0 h 3.67201 z"
       style="font-style:normal;font-weight:300;font-size:72px;line-height:1;font-family:'Montserrat Light Alt1';font-variant-ligatures:none;text-align:center;text-anchor:middle;fill:#5cb349"
       id="path61044" />
  </g>
</svg>
